<?xml version="1.0" encoding="UTF-8" standalone="no"?> <!-- Created with Vectornator for iOS (http://vectornator.io/) --><!DOCTYPE svg PUBLIC "-//W3C//DTD SVG 1.1//EN" "http://www.w3.org/Graphics/SVG/1.1/DTD/svg11.dtd">
<svg height="100%" style="fill-rule:evenodd;clip-rule:evenodd;stroke-linecap:round;stroke-linejoin:round;" xmlns:xlink="http://www.w3.org/1999/xlink" xmlns="http://www.w3.org/2000/svg" xml:space="preserve" width="100%" xmlns:vectornator="http://vectornator.io" version="1.1" viewBox="0 0 1024 1024">
<metadata>
<vectornator:setting key="Units" value="Points"/>
<vectornator:setting key="GuidesVisible" value="1"/>
<vectornator:setting key="RulersVisible" value="1"/>
<vectornator:setting key="SnapToGuides" value="1"/>
<vectornator:setting key="DynamicGuides" value="1"/>
</metadata>
<defs/>
<g id="Layer 1" vectornator:layerName="Layer 1">
<path stroke="#fdfeff" fill-rule="evenodd" stroke-width="1" d="M114+160C512.5+160+512.5+160+911+160C911+512+911+512+911+864C512+864+512+864+113+864C113.5+512+113.5+512+114+160Z" fill="#fdfeff" stroke-linecap="round" opacity="0" stroke-linejoin="round"/>
<path stroke="#2b2b2b" fill-rule="evenodd" stroke-width="13.7537" d="M713.974+325.642C674.274+177.918+510.284+135.491+394.566+190.257C330.568+220.546+281.335+280.563+276.057+368.938C127.802+378.789+73.8462+561.703+200.955+632.649C217.836+642.072+242.68+651.263+262.306+651.345C416.386+651.991+570.469+652.012+724.551+652.329C729.84+652.34+735.134+652.543+740.418+652.329C864.222+647.322+922.434+516.23+881.101+420.106C854.004+357.088+782.93+330.987+713.974+325.642Z" fill="#e2eaf2" stroke-linecap="round" opacity="1" stroke-linejoin="round"/>
<path stroke="#3f52fb" fill-rule="evenodd" stroke-width="1" d="M542.853+670.372C598.852+659.862+474.144+830.053+468.793+831.685C458.01+834.973+439.708+822.119+450.807+805.875C471.533+775.538+515.021+675.595+542.853+670.372Z" fill="#3f52fb" stroke-linecap="round" opacity="1" stroke-linejoin="round"/>
<path stroke="#3d50fb" fill-rule="evenodd" stroke-width="1" d="M686.742+670.372C741.51+660.455+625.182+826.102+613.739+831.685C604.119+836.379+584.408+822.851+594.695+807.165C613.756+778.103+660.885+675.054+686.742+670.372Z" fill="#3d50fb" stroke-linecap="round" opacity="1" stroke-linejoin="round"/>
<path stroke="#2e42fa" fill-rule="evenodd" stroke-width="1" d="M400.022+667.791C449.837+664.436+356.533+782.493+347.122+796.841C343.028+803.084+330.315+829.788+323.846+830.395C261.895+836.207+389.6+668.493+400.022+667.791Z" fill="#2e42fa" stroke-linecap="round" opacity="1" stroke-linejoin="round"/>
<path stroke="#283dfa" fill-rule="evenodd" stroke-width="1" d="M615.855+671.662C661.168+667.566+588.361+765.22+581.999+767.16C525.595+784.36+602.197+672.897+615.855+671.662Z" fill="#283dfa" stroke-linecap="round" opacity="1" stroke-linejoin="round"/>
<path stroke="#364afa" fill-rule="evenodd" stroke-width="1" d="M324.904+670.372C372.149+664.737+300.066+763.442+292.106+765.869C237.131+782.633+312.063+671.903+324.904+670.372Z" fill="#364afa" stroke-linecap="round" opacity="1" stroke-linejoin="round"/>
<path stroke="#2c41fa" fill-rule="evenodd" stroke-width="1" d="M470.909+671.662C518.731+667.943+440.151+767.814+434.936+768.45C384.221+774.636+458.986+672.59+470.909+671.662Z" fill="#2c41fa" stroke-linecap="round" opacity="1" stroke-linejoin="round"/>
<path stroke="#24272b" fill-rule="evenodd" stroke-width="13.7537" d="M206.271+418.562C190.868+426.526+180.743+442.887+173.386+458.105" fill="#6398e6" stroke-linecap="round" fill-opacity="0.997475" opacity="1" stroke-linejoin="round"/>
<path stroke="#24272b" fill-rule="evenodd" stroke-width="13.7537" d="M355.226+252.907C369+224.419+430.663+197.493+460.988+197.493" fill="#e2eaf2" stroke-linecap="round" opacity="1" stroke-linejoin="round"/>
<path stroke="#24272b" fill-rule="evenodd" stroke-width="9.84952" d="M708.376+313.205C710.199+316.975+711.404+323.296+711.404+327.519" fill="#6398e6" stroke-linecap="round" fill-opacity="0.997475" opacity="1" stroke-linejoin="round"/>
<path stroke="#24272b" fill-rule="evenodd" stroke-width="9.84952" d="M711.837+324.835C711.26+326.028+711.26+325.432+711.837+326.625" fill="#6398e6" stroke-linecap="round" fill-opacity="0.997475" opacity="1" stroke-linejoin="round"/>
<path stroke="#24272b" fill-rule="evenodd" stroke-width="9.84952" d="M712.702+325.283C712.702+327.096+712.565+326.2+713.134+327.967" fill="#6398e6" stroke-linecap="round" fill-opacity="0.997475" opacity="1" stroke-linejoin="round"/>
<path stroke="#e8bd36" fill-rule="evenodd" stroke-width="1" d="M336.432+621.18C336.432+617+339.765+613.611+343.876+613.611C347.987+613.611+351.319+617+351.319+621.18C351.319+625.36+347.987+628.749+343.876+628.749C339.765+628.749+336.432+625.36+336.432+621.18Z" fill="#e8bd36" stroke-linecap="round" opacity="1" stroke-linejoin="round"/>
<path stroke="#e8bd36" fill-rule="evenodd" stroke-width="1" d="M225.435+828.953C225.435+828.953+225.574+828.953+225.745+828.953C225.916+828.953+226.055+828.953+226.055+828.953C226.055+828.953+225.916+828.953+225.745+828.953C225.574+828.953+225.435+828.953+225.435+828.953Z" fill="#e8bd36" stroke-linecap="round" opacity="1" stroke-linejoin="round"/>
<path stroke="#e8bd36" fill-rule="evenodd" stroke-width="1" d="M624.16+622.216C624.16+618.164+627.467+614.88+631.547+614.88C635.627+614.88+638.935+618.164+638.935+622.216C638.935+626.267+635.627+629.552+631.547+629.552C627.467+629.552+624.16+626.267+624.16+622.216Z" fill="#e8bd36" stroke-linecap="round" opacity="1" stroke-linejoin="round"/>
<path stroke="#e8bd36" fill-rule="evenodd" stroke-width="1" d="M412.244+623.258C412.244+619.078+415.576+615.69+419.687+615.69C423.798+615.69+427.13+619.078+427.13+623.258C427.13+627.438+423.798+630.827+419.687+630.827C415.576+630.827+412.244+627.438+412.244+623.258Z" fill="#e8bd36" stroke-linecap="round" opacity="1" stroke-linejoin="round"/>
<path stroke="#e8bd36" fill-rule="evenodd" stroke-width="1" d="M481.722+623.018C481.722+618.838+485.054+615.449+489.165+615.449C493.276+615.449+496.608+618.838+496.608+623.018C496.608+627.198+493.276+630.586+489.165+630.586C485.054+630.586+481.722+627.198+481.722+623.018Z" fill="#e8bd36" stroke-linecap="round" opacity="1" stroke-linejoin="round"/>
<path stroke="#e8bd36" fill-rule="evenodd" stroke-width="1" d="M552.732+622.728C552.732+618.548+556.065+615.159+560.175+615.159C564.286+615.159+567.619+618.548+567.619+622.728C567.619+626.908+564.286+630.296+560.175+630.296C556.065+630.296+552.732+626.908+552.732+622.728Z" fill="#e8bd36" stroke-linecap="round" opacity="1" stroke-linejoin="round"/>
<path stroke="#e8bd36" fill-rule="evenodd" stroke-width="1" d="M691.767+622.946C691.767+618.894+695.074+615.61+699.154+615.61C703.234+615.61+706.542+618.894+706.542+622.946C706.542+626.997+703.234+630.282+699.154+630.282C695.074+630.282+691.767+626.997+691.767+622.946Z" fill="#e8bd36" stroke-linecap="round" opacity="1" stroke-linejoin="round"/>
</g>
</svg>
